{"title":"Steven Universe s01e06 Cat Fingers.mp4","uid":9251581,"size":70455303,"categoryP":"video","categoryS":"tv_shows","magnet":"?xt=urn:btih:c66f99f37473c63d887f1fcf528c5233d1eebda8&amp;dn=Steven+Universe+s01e06+Cat+Fingers.mp4&amp;tr=udp%3A%2F%2Ftracker.openbittorrent.com%3A80&amp;tr=udp%3A%2F%2Fopen.demonii.com%3A1337&amp;tr=udp%3A%2F%2Ftracker.coppersurfer.tk%3A6969&amp;tr=udp%3A%2F%2Fexodus.desync.com%3A6969","seeders":6,"leechers":1,"uploader":"jamesesw","files":1,"time":1385473895,"description":"Steven's fingers get turned into cats.\n\n\nVideo\nID : 1\nFormat : AVC\nFormat/Info : Advanced Video Codec\nFormat profile : &lt;a class=&quot;__cf_email__&quot; href=&quot;/cdn-cgi/l/email-protection&quot; data-cfemail=&quot;7f371618173f334c514f&quot;&gt;[email&amp;#160;protected]&lt;/a&gt;&lt;script cf-hash='f9e31' type=&quot;text/javascript&quot;&gt;\n/* &lt;![CDATA[ */!function(){try{var t=&quot;currentScript&quot;in document?document.currentScript:function(){for(var t=document.getElementsByTagName(&quot;script&quot;),e=t.length;e--;)if(t[e].getAttribute(&quot;cf-hash&quot;))return t[e]}();if(t&amp;&amp;t.previousSibling){var e,r,n,i,c=t.previousSibling,a=c.getAttribute(&quot;data-cfemail&quot;);if(a){for(e=&quot;&quot;,r=parseInt(a.substr(0,2),16),n=2;a.length-n;n+=2)i=parseInt(a.substr(n,2),16)^r,e+=String.fromCharCode(i);e=document.createTextNode(e),c.parentNode.replaceChild(e,c)}}}catch(u){}}();/* ]]&gt; */&lt;/script&gt;\nFormat settings, CABAC : Yes\nFormat settings, ReFrames : 4 frames\nCodec ID : avc1\nCodec ID/Info : Advanced Video Coding\nDuration : 11mn 9s\nBit rate : 750 Kbps\nWidth : 720 pixels\nHeight : 400 pixels\nDisplay aspect ratio : 16:9\nFrame rate mode : Constant\nFrame rate : 23.976 fps\nColor space : YUV\nChroma subsampling : 4:2:0\nBit depth : 8 bits\nScan type : Progressive\nBits/(Pixel*Frame) : 0.109\nStream size : 60.2 MiB (90%)\nWriting library : x264 core 120 r2151 a3f4407\n\nAudio\nID : 2\nFormat : AAC\nFormat/Info : Advanced Audio Codec\nFormat profile : LC\nCodec ID : 40\nDuration : 11mn 9s\nDuration_LastFrame : -21ms\nBit rate mode : Variable\nBit rate : 82.7 Kbps\nMaximum bit rate : 128 Kbps\nChannel(s) : 2 channels\nChannel positions : Front: L R\nSampling rate : 24.0 KHz\nCompression mode : Lossy\nStream size : 6.60 MiB (10%) ","torrent":{"xt":"urn:btih:c66f99f37473c63d887f1fcf528c5233d1eebda8","amp;dn":"Steven+Universe+s01e06+Cat+Fingers.mp4","amp;tr":["udp%3A%2F%2Ftracker.openbittorrent.com%3A80","udp%3A%2F%2Fopen.demonii.com%3A1337","udp%3A%2F%2Ftracker.coppersurfer.tk%3A6969","udp%3A%2F%2Fexodus.desync.com%3A6969"],"infoHash":"c66f99f37473c63d887f1fcf528c5233d1eebda8","infoHashBuffer":{"type":"Buffer","data":[198,111,153,243,116,115,198,61,136,127,31,207,82,140,82,51,209,238,189,168]},"announce":[],"urlList":[]}}